<?xml version="1.0" standalone="yes"?>
<svg xmlns="http://www.w3.org/2000/svg" width="57" height="58">
<path style="fill:#010101; stroke:none;" d="M0 0L0 58L57 58L57 0L0 0z"/>
<path style="fill:#60a0ae; stroke:none;" d="M23 3L23 4L35 4L23 3M20.6667 4.33333L21.3333 4.66667L20.6667 4.33333z"/>
<path style="fill:#089af2; stroke:none;" d="M28 22C35.6674 22.1854 37.122 24.8957 38 32L55 25C48.9199 -0.585388 8.36247 -4.65487 3.3287 24C2.38818 29.354 2.16412 45.7775 10.1852 46.4182C13.5392 46.6861 17.1709 43.7082 19.9606 42.2099C22.3189 40.9433 25.5388 39.9323 27.0116 37.5255C29.3828 33.6503 28 26.4019 28 22z"/>
<path style="fill:#60a0ae; stroke:none;" d="M36.6667 4.33333L37.3333 4.66667L36.6667 4.33333M17.6667 5.33333L18.3333 5.66667L17.6667 5.33333M39.6667 5.33333L40.3333 5.66667L39.6667 5.33333M15.6667 6.33333L16.3333 6.66667L15.6667 6.33333M41.6667 6.33333L42.3333 6.66667L41.6667 6.33333M14 7L15 8L14 7M43 7L44 8L43 7M12.6667 8.33333L13.3333 8.66667L12.6667 8.33333M44.6667 8.33333L45.3333 8.66667L44.6667 8.33333M11 9L12 10L11 9M46 9L47 10L46 9M10 10L11 11L10 10M47 10L48 11L47 10M9 11L10 12L9 11M48 11L49 12L48 11M8 12L9 13L8 12M49 12L50 13L49 12M7.33333 13.6667L7.66667 14.3333L7.33333 13.6667M50.3333 13.6667L50.6667 14.3333L50.3333 13.6667M6 15L7 16L6 15M51 15L52 16L51 15M5.33333 16.6667L5.66667 17.3333L5.33333 16.6667M52.3333 16.6667L52.6667 17.3333L52.3333 16.6667M4.33333 18.6667L4.66667 19.3333L4.33333 18.6667M53.3333 18.6667L53.6667 19.3333L53.3333 18.6667M3.33333 21.6667L3.66667 22.3333L3.33333 21.6667M54.3333 21.6667L54.6667 22.3333L54.3333 21.6667M17 22L17 23L26 23L17 22M28 22L28 23L35 23L28 22z"/>
<path style="fill:#def0fd; stroke:none;" d="M17 23L17 37L19 37L19 31L25 31L25 29L19 25L26 25L26 23L17 23M28 23L28 37C32.4381 36.905 40.2254 35.8445 36 30C39.5254 23.0494 33.5612 23.0043 28 23z"/>
<path style="fill:#60a0ae; stroke:none;" d="M2 24L2 36L3 36L2 24M55 24L55 36L56 36L55 24M19 25L19 28L20 28L19 25M30 25L34 29L34 28L30 25z"/>
<path style="fill:#089af2; stroke:none;" d="M31 25L31 28L35 28L35 25L31 25z"/>
<path style="fill:#0878ec; stroke:none;" d="M9 47C18.2129 58.9297 38.7126 59.3448 48.6713 47.9568C54.684 41.0812 55 33.6411 55 25L35.8711 35.9769L9 47z"/>
<path style="fill:#60a0ae; stroke:none;" d="M35 26L36 27L35 26M20 28L20 29L24 29L20 28M37 28L38 29L37 28M36 29L37 30L36 29M34 35L34 34L31 34L31 31L34 31C29.8098 30.0484 30.6594 33.8897 34 35M37 30L38 31L37 30M19 31L19 37L20 37L19 31z"/>
<path style="fill:#089af2; stroke:none;" d="M31 31L31 34L35 34L35 31L31 31z"/>
<path style="fill:#60a0ae; stroke:none;" d="M35 31L35 34L36 34L35 31M38.3333 32.6667L38.6667 33.3333L38.3333 32.6667z"/>
<path style="fill:#089af2; stroke:none;" d="M38 34L39 35L38 34z"/>
<path style="fill:#60a0ae; stroke:none;" d="M37 35L38 36L37 35M34.6667 36.3333L35.3333 36.6667L34.6667 36.3333z"/>
<path style="fill:#089af2; stroke:none;" d="M36 36L37 37L36 36z"/>
<path style="fill:#60a0ae; stroke:none;" d="M3.33333 37.6667L3.66667 38.3333L3.33333 37.6667M54.3333 37.6667L54.6667 38.3333L54.3333 37.6667M4.33333 40.6667L4.66667 41.3333L4.33333 40.6667M53.3333 40.6667L53.6667 41.3333L53.3333 40.6667M5.33333 42.6667L5.66667 43.3333L5.33333 42.6667M52.3333 42.6667L52.6667 43.3333L52.3333 42.6667M6 44L7 45L6 44M51 44L52 45L51 44M7.33333 45.6667L7.66667 46.3333L7.33333 45.6667M50.3333 45.6667L50.6667 46.3333L50.3333 45.6667M8 47L9 48L8 47M49 47L50 48L49 47M9 48L10 49L9 48M48 48L49 49L48 48M10 49L11 50L10 49M47 49L48 50L47 49M11 50L12 51L11 50M46 50L47 51L46 50M12.6667 51.3333L13.3333 51.6667L12.6667 51.3333M45 51L46 52L45 51M14 52L15 53L14 52M43 52L44 53L43 52M15.6667 53.3333L16.3333 53.6667L15.6667 53.3333M41.6667 53.3333L42.3333 53.6667L41.6667 53.3333M17.6667 54.3333L18.3333 54.6667L17.6667 54.3333M39.6667 54.3333L40.3333 54.6667L39.6667 54.3333M20.6667 55.3333L21.3333 55.6667L20.6667 55.3333M36.6667 55.3333L37.3333 55.6667L36.6667 55.3333M23 56L23 57L35 57L23 56z"/>
</svg>
